<?xml version="1.0" encoding="utf-8"?>
<!-- Generator: Adobe Illustrator 17.1.0, SVG Export Plug-In . SVG Version: 6.00 Build 0)  -->
<!DOCTYPE svg PUBLIC "-//W3C//DTD SVG 1.1//EN" "http://www.w3.org/Graphics/SVG/1.1/DTD/svg11.dtd">
<svg version="1.1" id="Capa_1" xmlns="http://www.w3.org/2000/svg" xmlns:xlink="http://www.w3.org/1999/xlink" x="0px" y="0px"
	 viewBox="0 0 37.5 54.5" enable-background="new 0 0 37.5 54.5" xml:space="preserve">
<path d="M18.8,1.7C8.7,1.7,0.5,9.9,0.5,20c0,9.5,13.7,19.7,17.6,32.3c0.1,0.3,0.3,0.5,0.6,0.5c0.3,0,0.5-0.2,0.6-0.5
	C23.2,39.4,37,29.5,37,20C37,9.9,28.8,1.7,18.8,1.7z M18.8,33.9c-7.9,0-14.3-6.4-14.3-14.3c0-7.9,6.4-14.3,14.3-14.3
	c7.9,0,14.3,6.4,14.3,14.3C33.1,27.4,26.7,33.9,18.8,33.9z"/>
<g>
	<path d="M14.3,31.3l6.8-23.2h3.2l-6.8,23.2H14.3z"/>
</g>
</svg>
